<svg width="112" height="26" viewBox="0 0 112 26" fill="none" xmlns="http://www.w3.org/2000/svg">
<path d="M25.6002 6.46233L14.2591 20.4679L14.2571 20.4655V14.4606L22.1859 3.70215L25.6002 6.46233Z" fill="#2C2C2C"/>
<path d="M14.2568 14.4596V0.5C8.16072 6.37113 1.94263 5.28341 1.94263 5.28341C1.94263 20.608 14.2568 25.5 14.2568 25.5V20.4649L7.79125 14.4276L10.7893 11.2216L14.2568 14.4596Z" fill="#2C2C2C"/>
<path d="M35.6001 8.88127H37.1459C37.5467 8.88127 37.8902 9.02356 38.1765 9.30813C38.4627 9.59271 38.6059 9.93419 38.6059 10.3326V20.2358H35.6001V8.88127ZM35.6001 5.55176H37.1459C37.5467 5.55176 37.8902 5.69404 38.1765 5.97862C38.4627 6.26319 38.6059 6.60468 38.6059 7.00308V7.89949H35.6001V5.55176Z" fill="#2C2C2C"/>
<path d="M49.7959 20.2358H46.8331V13.5767V12.9791C46.8331 12.2962 46.6184 11.7982 46.189 11.4851C45.7882 11.1721 45.3302 11.0156 44.8149 11.0156C44.2997 11.0156 43.8416 11.1721 43.4409 11.4851C43.0401 11.7982 42.8397 12.2962 42.8397 12.9791V20.2358H39.8339V13.5767C39.8339 11.6416 40.3349 10.3468 41.3368 9.69231C42.3674 9.03779 43.4981 8.68207 44.7291 8.62515C45.3875 8.62515 46.0316 8.6963 46.6613 8.83858C47.2911 8.98087 47.8636 9.26545 48.3789 9.69231C48.8083 9.32236 49.3093 9.06624 49.8818 8.92396C50.483 8.75321 51.0984 8.65361 51.7282 8.62515C52.9878 8.62515 54.1471 8.95241 55.2063 9.60693C56.2655 10.2615 56.7951 11.5847 56.7951 13.5767V20.2358H55.2922C54.8628 20.2358 54.505 20.1077 54.2187 19.8516C53.9611 19.567 53.8323 19.2113 53.8323 18.7844V12.9791C53.8323 12.2962 53.6176 11.7982 53.1882 11.4851C52.7874 11.1721 52.3294 11.0156 51.8141 11.0156C51.2988 11.0156 50.8265 11.1721 50.3971 11.4851C49.9963 11.7982 49.7959 12.2962 49.7959 12.9791V13.5767V20.2358Z" fill="#2C2C2C"/>
<path d="M68.6722 20.2358H65.7093V13.5767V12.9791C65.7093 12.2962 65.4946 11.7982 65.0653 11.4851C64.6645 11.1721 64.2065 11.0156 63.6912 11.0156C63.1759 11.0156 62.7179 11.1721 62.3171 11.4851C61.9163 11.7982 61.716 12.2962 61.716 12.9791V20.2358H58.7102V13.5767C58.7102 11.6416 59.2112 10.3468 60.2131 9.69231C61.2436 9.03779 62.3744 8.68207 63.6053 8.62515C64.2637 8.62515 64.9078 8.6963 65.5376 8.83858C66.1674 8.98087 66.7399 9.26545 67.2552 9.69231C67.6846 9.32236 68.1855 9.06624 68.7581 8.92396C69.3592 8.75321 69.9747 8.65361 70.6045 8.62515C71.864 8.62515 73.0234 8.95241 74.0826 9.60693C75.1417 10.2615 75.6713 11.5847 75.6713 13.5767V20.2358H74.1684C73.7391 20.2358 73.3812 20.1077 73.095 19.8516C72.8373 19.567 72.7085 19.2113 72.7085 18.7844V12.9791C72.7085 12.2962 72.4938 11.7982 72.0644 11.4851C71.6636 11.1721 71.2056 11.0156 70.6903 11.0156C70.1751 11.0156 69.7027 11.1721 69.2733 11.4851C68.8726 11.7982 68.6722 12.2962 68.6722 12.9791V13.5767V20.2358Z" fill="#2C2C2C"/>
<path d="M87.5484 8.88127V15.5403C87.5484 17.5608 87.0188 18.884 85.9597 19.5101C84.9005 20.1362 83.7411 20.4492 82.4816 20.4492C81.2506 20.3923 80.1199 20.0508 79.0893 19.4247C78.0874 18.7987 77.5864 17.5039 77.5864 15.5403V8.88127H80.5922V16.1379C80.5922 16.8209 80.7926 17.3189 81.1934 17.6319C81.5941 17.9449 82.0522 18.1015 82.5674 18.1015C83.0827 18.1015 83.5407 17.9449 83.9415 17.6319C84.3709 17.3189 84.5856 16.8209 84.5856 16.1379V10.3326C84.5856 9.93419 84.7144 9.59271 84.9721 9.30813C85.2583 9.02356 85.6161 8.88127 86.0455 8.88127H87.5484Z" fill="#2C2C2C"/>
<path d="M99.082 20.2358H97.5791C97.1497 20.2358 96.7919 20.1077 96.5056 19.8516C96.248 19.567 96.1192 19.2113 96.1192 18.7844V12.9791C96.1192 12.2962 95.9045 11.7982 95.4751 11.4851C95.0743 11.1721 94.6163 11.0156 94.101 11.0156C93.5857 11.0156 93.1277 11.1721 92.7269 11.4851C92.3262 11.7982 92.1258 12.2962 92.1258 12.9791V20.2358H89.12V13.5767C89.12 11.6416 89.621 10.3468 90.6229 9.69231C91.6535 9.03779 92.7842 8.68207 94.0151 8.62515C95.2747 8.62515 96.4341 8.95241 97.4932 9.60693C98.5524 10.2615 99.082 11.5847 99.082 13.5767V20.2358Z" fill="#2C2C2C"/>
<path d="M107.266 14.5158C106.866 14.715 106.307 14.9 105.592 15.0708C104.933 15.213 104.604 15.2842 104.604 15.2842C104.089 15.4265 103.717 15.6114 103.488 15.8391C103.287 16.1521 103.187 16.4652 103.187 16.7782C103.187 17.2051 103.316 17.5465 103.573 17.8027C103.831 18.0303 104.203 18.1441 104.69 18.1441C105.491 18.1441 106.121 17.9165 106.579 17.4612C107.037 17.0059 107.266 16.3798 107.266 15.583V14.5158ZM107.953 19.7662C107.352 20.0792 106.708 20.2642 106.021 20.3211C105.363 20.4065 104.776 20.4492 104.261 20.4492C103.23 20.4492 102.328 20.1788 101.555 19.6382C100.782 19.069 100.396 18.1441 100.396 16.8636C100.396 15.6684 100.739 14.8146 101.427 14.3024C102.142 13.7902 103.044 13.4487 104.132 13.2779C104.275 13.2779 104.447 13.2637 104.647 13.2352C104.847 13.1783 105.076 13.1356 105.334 13.1072C106.594 12.9364 107.223 12.5665 107.223 11.9974C107.223 11.5705 106.994 11.3001 106.536 11.1863C106.107 11.044 105.706 10.9729 105.334 10.9729C104.933 10.9729 104.575 11.0298 104.261 11.1436C103.946 11.2575 103.717 11.4709 103.573 11.7839H100.697C100.811 10.9017 101.212 10.1761 101.899 9.60693C102.672 8.95241 103.774 8.62515 105.205 8.62515C106.808 8.62515 108.011 8.8955 108.812 9.43619C109.642 10.0053 110.057 10.8021 110.057 11.8266V15.711C110.057 16.8493 109.843 17.7457 109.413 18.4003C109.013 19.0263 108.526 19.4816 107.953 19.7662Z" fill="#2C2C2C"/>
</svg>
