<svg width="12" height="19" viewBox="0 0 12 19" fill="none" xmlns="http://www.w3.org/2000/svg">
<path d="M11.4128 11.0395C11.4131 11.139 11.3811 11.2362 11.3218 11.3164L6.09139 18.7998C6.00381 18.9252 5.86027 19.0001 5.70713 19.0001C5.55428 19.0001 5.41074 18.9252 5.32316 18.7998L0.0873227 11.307C-0.0480161 11.1177 -0.0237203 10.8578 0.144114 10.6967C0.312226 10.5357 0.572735 10.5224 0.756383 10.6653L5.70709 14.4215L10.6578 10.6682H10.6581C10.7332 10.61 10.8242 10.5763 10.9189 10.571H10.9491C11.2056 10.5735 11.4125 10.782 11.4128 11.0389L11.4128 11.0395Z" fill="#3D3D3D"/>
<path d="M10.9448 8.27255L6.10908 0.227164C6.02431 0.086176 5.87203 0 5.70758 0C5.54343 0 5.39085 0.086176 5.30637 0.227164L0.470384 8.27255C0.348043 8.47655 0.39777 8.7396 0.586229 8.88482L5.42142 12.6152C5.5901 12.7458 5.82545 12.7458 5.99414 12.6152L10.8293 8.88482C11.0175 8.7396 11.0675 8.47655 10.9449 8.27255H10.9448ZM10.1774 8.34828C10.1336 8.44519 10.0531 8.52091 9.95335 8.55878C9.8539 8.59635 9.74343 8.59268 9.64623 8.54889L5.85622 6.83073C5.76185 6.78807 5.65364 6.78807 5.55927 6.83073L1.76926 8.54693C1.67178 8.59271 1.56018 8.59779 1.45931 8.5605C1.35844 8.52348 1.27679 8.44748 1.23243 8.34943C1.18807 8.25139 1.18468 8.13979 1.22339 8.03948C1.2621 7.93917 1.33923 7.85865 1.43783 7.8157L5.54176 5.95513C5.648 5.90653 5.77005 5.90653 5.87629 5.95513L9.98021 7.8157C10.1814 7.90809 10.2698 8.14628 10.1774 8.34745L10.1774 8.34828Z" fill="#3D3D3D"/>
</svg>
