<svg width="44" height="29" viewBox="0 0 44 29" fill="none" xmlns="http://www.w3.org/2000/svg">
<path d="M14.6732 2.45303V2.46504C14.6852 2.52509 14.6852 2.59716 14.6852 2.66923V11.3294C14.6732 11.3774 14.6371 11.3894 14.6011 11.4134C14.3489 11.5335 14.1086 11.6416 13.8564 11.7497C13.5081 11.9059 13.1477 12.074 12.7994 12.2302L11.5382 12.8067C11.1899 12.9629 10.8416 13.119 10.5052 13.2752C10.0969 13.4674 9.67647 13.6475 9.26809 13.8397C8.91976 13.9959 8.57143 14.164 8.2111 14.3202C7.92283 14.4523 7.63456 14.5724 7.3583 14.7045C7.33427 14.7165 7.31025 14.7285 7.28623 14.7285C7.27422 14.7285 7.27422 14.7285 7.26221 14.7165L7.58651 14.176C8.2111 13.1431 8.82367 12.1221 9.44826 11.0891C10.1089 9.98409 10.7815 8.87905 11.4421 7.77402C12.0547 6.75306 12.6793 5.7321 13.2919 4.71114C13.7363 3.96645 14.1927 3.22175 14.6371 2.47705C14.6491 2.45303 14.6611 2.44101 14.6611 2.41699H14.6732C14.6611 2.429 14.6732 2.44101 14.6732 2.45303Z" fill="#8A92B2"/>
<path d="M22.0479 14.7164L22.0599 14.7284L20.2942 15.7734L14.745 19.0524C14.721 19.0645 14.697 19.0765 14.685 19.0885C14.6489 19.0885 14.6489 19.0524 14.6489 19.0404V18.9323V11.5094C14.6489 11.4733 14.6489 11.4253 14.6609 11.3893C14.6729 11.3412 14.709 11.3532 14.745 11.3652C14.9012 11.4373 15.0693 11.5094 15.2255 11.5814C15.6939 11.7976 16.1623 12.0138 16.6308 12.218C17.0392 12.3982 17.4355 12.5904 17.8439 12.7706C18.2523 12.9507 18.6607 13.1429 19.0691 13.3231C19.4174 13.4792 19.7777 13.6474 20.1261 13.8035C20.4744 13.9597 20.8347 14.1278 21.1831 14.284C21.4593 14.4041 21.7356 14.5362 22.0118 14.6563C22.0118 14.6924 22.0238 14.7044 22.0479 14.7164Z" fill="#454A75"/>
<path d="M14.6727 26.5479C14.6727 26.56 14.6607 26.572 14.6607 26.584H14.6486C14.6486 26.56 14.6246 26.5479 14.6126 26.5239C13.8679 25.4789 13.1232 24.422 12.3785 23.377C11.6218 22.308 10.8531 21.227 10.0964 20.158C9.36369 19.125 8.61899 18.08 7.8863 17.047C7.69412 16.7708 7.50194 16.5065 7.30976 16.2303C7.29775 16.2062 7.28574 16.1942 7.26172 16.1582C7.29775 16.1582 7.32178 16.1822 7.33379 16.1942C8.37877 16.8068 9.41174 17.4194 10.4567 18.032C11.6578 18.7406 12.847 19.4493 14.0481 20.158L14.6607 20.5183C14.6847 20.5423 14.6847 20.5663 14.6847 20.5904V26.3798C14.6847 26.4398 14.6847 26.4999 14.6727 26.5479Z" fill="#8A92B2"/>
<path d="M7.25 14.7407V14.7287C7.63436 14.5605 8.00671 14.3804 8.39107 14.2122C8.88353 13.984 9.37599 13.7678 9.86846 13.5396C10.2408 13.3714 10.6252 13.1912 10.9975 13.0231C11.55 12.7708 12.0905 12.5306 12.6431 12.2784C13.0154 12.1102 13.3878 11.9421 13.7721 11.7619C14.0364 11.6418 14.3126 11.5217 14.5769 11.4016C14.6009 11.3895 14.6369 11.3775 14.6489 11.3535C14.661 11.3535 14.661 11.3655 14.6489 11.3775V19.0047C14.6489 19.0407 14.6369 19.0768 14.661 19.1008C14.6369 19.1368 14.6129 19.1008 14.6009 19.0888C14.4928 19.0287 14.3847 18.9687 14.2766 18.8966C11.9584 17.5273 9.62823 16.146 7.31006 14.7767C7.29805 14.7647 7.27402 14.7527 7.25 14.7407Z" fill="#62688F"/>
<path d="M22.024 16.1582H22.036C22.036 16.1822 22.012 16.2062 22 16.2303C19.7899 19.3412 17.5799 22.4641 15.3698 25.575C15.1416 25.8993 14.9014 26.2236 14.6731 26.5479C14.6611 26.5359 14.6611 26.5239 14.6611 26.5119V26.4398V20.6144V20.5063C15.1656 20.206 15.6581 19.9177 16.1625 19.6174C18.1084 18.4644 20.0542 17.3233 21.988 16.1702C22 16.1822 22.012 16.1702 22.024 16.1582Z" fill="#62688F"/>
<path d="M14.6612 11.3772V11.3532V11.2811V2.56093C14.6612 2.5249 14.6492 2.50088 14.6732 2.46484C17.1115 6.51264 19.5498 10.5484 21.9761 14.5962C22.0001 14.6323 22.0361 14.6803 22.0482 14.7283C21.88 14.6683 21.7239 14.5842 21.5677 14.5121C21.3755 14.4281 21.1713 14.332 20.9792 14.2479C20.859 14.1878 20.7269 14.1398 20.6068 14.0797C20.4026 13.9836 20.1984 13.8996 19.9942 13.8035C19.8741 13.7554 19.754 13.6954 19.6339 13.6353L18.8412 13.275C18.709 13.2149 18.5769 13.1549 18.4328 13.0948L17.8562 12.8426C17.7361 12.7945 17.616 12.7345 17.4959 12.6744L16.7031 12.3141C16.571 12.254 16.4389 12.194 16.2948 12.1339L15.7182 11.8817C15.5861 11.8216 15.466 11.7616 15.3339 11.7015C15.1056 11.5934 14.8774 11.4853 14.6372 11.3892C14.6732 11.3772 14.6612 11.3772 14.6612 11.3772Z" fill="#62688F"/>
<path fill-rule="evenodd" clip-rule="evenodd" d="M28.9999 2.41699C35.6734 2.41699 41.0832 7.82676 41.0832 14.5003C41.0832 21.1734 35.6734 26.5837 28.9999 26.5837C22.3263 26.5837 16.9165 21.1734 16.9165 14.5003C16.9165 7.82676 22.3263 2.41699 28.9999 2.41699Z" fill="#2775CA"/>
<path fill-rule="evenodd" clip-rule="evenodd" d="M26.7348 22.9015C26.7348 23.1857 26.5122 23.3472 26.2374 23.2613C22.5839 22.0959 19.9351 18.6701 19.9351 14.6279C19.9351 10.5859 22.5839 7.16001 26.2374 5.99451C26.5122 5.90924 26.7348 6.07017 26.7348 6.3544V7.05606C26.7348 7.24528 26.5882 7.468 26.4079 7.52965C23.5174 8.59106 21.4467 11.3679 21.4467 14.6231C21.4467 17.8784 23.5174 20.6557 26.4079 21.7166C26.5882 21.7831 26.7348 22.0008 26.7348 22.1907V22.9015Z" fill="#F3F3F3"/>
<path fill-rule="evenodd" clip-rule="evenodd" d="M29.7533 20.29C29.7533 20.4987 29.5828 20.6693 29.3743 20.6693H28.6208C28.4123 20.6693 28.2418 20.4987 28.2418 20.29V19.0961C26.5927 18.8735 25.7873 17.9493 25.5693 16.6937C25.5313 16.4802 25.7018 16.286 25.9199 16.286H26.7823C26.9623 16.286 27.114 16.4142 27.1519 16.5939C27.3131 17.3426 27.7443 17.9161 29.0662 17.9161C30.0423 17.9161 30.7344 17.3711 30.7344 16.5564C30.7344 15.7411 30.3267 15.4332 28.8957 15.1961C26.7823 14.9118 25.7825 14.272 25.7825 12.6135C25.7825 11.3342 26.7493 10.3392 28.2466 10.1259V8.95542C28.2466 8.74685 28.4173 8.57617 28.6256 8.57617H29.3791C29.5876 8.57617 29.7581 8.74685 29.7581 8.95542V10.1591C30.9759 10.3774 31.7483 11.0688 31.9996 12.2155C32.0468 12.4338 31.8763 12.6371 31.6537 12.6371H30.8574C30.6869 12.6371 30.5448 12.5233 30.4927 12.3576C30.2795 11.6282 29.7581 11.3155 28.8529 11.3155C27.8532 11.3155 27.3366 11.7987 27.3366 12.4762C27.3366 13.1917 27.6306 13.5516 29.166 13.7748C31.2412 14.059 32.3124 14.6512 32.3124 16.4191C32.3124 17.7599 31.3171 18.8451 29.7581 19.0961V20.29H29.7533Z" fill="#F3F3F3"/>
<path fill-rule="evenodd" clip-rule="evenodd" d="M31.7626 23.2616C31.488 23.3474 31.2651 23.186 31.2651 22.9017V22.2006C31.2651 21.992 31.3931 21.7979 31.5921 21.7265C34.4826 20.6651 36.5533 17.8882 36.5533 14.633C36.5533 11.3778 34.4826 8.60093 31.5921 7.53952C31.4121 7.47306 31.2651 7.25529 31.2651 7.06539V6.36428C31.2651 6.08004 31.488 5.91431 31.7626 6.00384C35.416 7.17002 38.0649 10.5958 38.0649 14.6378C38.0604 18.6702 35.416 22.0913 31.7626 23.2616Z" fill="#F3F3F3"/>
</svg>
