<svg width="15" height="15" viewBox="0 0 15 15" fill="none" xmlns="http://www.w3.org/2000/svg">
<path fill-rule="evenodd" clip-rule="evenodd" d="M6.66672 13.3332C6.66672 13.7748 6.84258 14.1991 7.15501 14.5115C7.46746 14.824 7.89175 14.9998 8.33337 14.9998H13.3332C13.7748 14.9998 14.1992 14.824 14.5116 14.5115C14.824 14.1991 14.9999 13.7748 14.9999 13.3332V9.99983C14.9999 9.55821 14.824 9.13391 14.5116 8.82148C14.1992 8.50905 13.7748 8.33319 13.3332 8.33319H8.33337C7.89175 8.33319 7.46744 8.50905 7.15501 8.82148C6.84256 9.13393 6.66672 9.55821 6.66672 9.99983V13.3332ZM3.33334 8.33336H1.66665C1.22486 8.33336 0.800721 8.50922 0.488288 8.82165C0.175673 9.13409 0 9.55838 0 10V13.3334C0 13.775 0.175694 14.1993 0.488288 14.5117C0.800738 14.8242 1.22486 15 1.66665 15H3.33334C3.77496 15 4.1991 14.8241 4.5117 14.5117C4.82415 14.1993 4.99999 13.775 4.99999 13.3334V10C4.99999 9.55838 4.82413 9.13408 4.5117 8.82165C4.19908 8.5092 3.77496 8.33336 3.33334 8.33336ZM15 1.66664C15 1.22485 14.8241 0.800716 14.5117 0.488285C14.1992 0.175672 13.7749 0 13.3333 0H1.66669C1.2249 0 0.800763 0.175693 0.48833 0.488285C0.175715 0.800733 4.25311e-05 1.22485 4.25311e-05 1.66664V5C4.25311e-05 5.44162 0.175736 5.86575 0.48833 6.17835C0.80078 6.4908 1.2249 6.66664 1.66669 6.66664H13.3333C14.2542 6.66664 15 5.92082 15 4.99996L15 1.66664Z" fill="#4D4D4D"/>
</svg>
