<svg width="14" height="17" viewBox="0 0 14 17" fill="none" xmlns="http://www.w3.org/2000/svg">
<path d="M12.923 2.63326H12.7436C10.8413 2.63326 9.60276 2.1668 7.64601 0.713211C7.45444 0.571118 7.22717 0.5 6.99977 0.5C6.77237 0.5 6.54512 0.571118 6.35354 0.713357C4.39709 2.16683 3.15836 2.63329 1.25633 2.63329H1.0769C0.482053 2.63329 0 3.11075 0 3.69993V8.50005C0 10.8709 1.16915 13.0055 3.38127 14.6726C4.98123 15.8787 6.57763 16.4212 6.64482 16.4438C6.75645 16.4814 6.87296 16.5 6.98963 16.5C7.1057 16.5 7.22206 16.4814 7.33369 16.4441C7.40105 16.4215 9.00217 15.8793 10.6072 14.6736C12.8268 13.0062 14 10.8713 14 8.49996V3.69984C14 3.11082 13.5178 2.63321 12.923 2.63321L12.923 2.63326ZM1.07693 8.49986H6.99998V1.5664C9.15377 3.16635 10.5897 3.69967 12.7438 3.69967C12.8428 3.69967 12.9232 3.77929 12.9232 3.87739V8.49958H7.00014V15.4293C6.996 15.4308 6.98993 15.433 6.98993 15.433C6.98993 15.433 1.07711 13.4519 1.07711 8.49949L1.07693 8.49986Z" fill="#4D4D4D"/>
</svg>
