<svg width="21" height="17" viewBox="0 0 21 17" fill="none" xmlns="http://www.w3.org/2000/svg">
<path d="M20.0518 5.44588C20.052 5.30979 19.9841 5.18265 19.871 5.10697L14.6954 1.10659C14.5632 0.995109 14.3788 0.968637 14.2207 1.03873C14.0709 1.11982 13.976 1.27511 13.9721 1.44568V3.41203C11.3051 3.47989 10.017 4.33873 9.81339 4.47426C6.40077 6.68892 7.14664 9.87562 7.14664 9.89852L7.25961 10.3731C7.31125 10.5424 7.44902 10.6716 7.62127 10.7122H7.71168C7.85317 10.7089 7.98572 10.6425 8.07333 10.5314L8.36713 10.1247V10.1245C9.67728 8.36075 11.7769 7.3617 13.9723 7.45753V9.49175C13.9654 9.66512 14.0634 9.82563 14.2209 9.89851C14.3766 9.96525 14.5554 9.94829 14.6956 9.8534L19.8712 5.80773C19.9823 5.7203 20.0487 5.58757 20.052 5.44608L20.0518 5.44588ZM14.8762 8.56485V7.05058C14.8773 6.81756 14.7012 6.62181 14.4694 6.59851C12.0083 6.32354 9.573 7.29928 7.98285 9.19777C7.96029 8.33894 8.20879 6.5987 10.3334 5.21992H10.356C10.356 5.21992 11.6216 4.33852 14.3338 4.33852H14.4242H14.4241C14.5439 4.33852 14.659 4.29079 14.7438 4.20616C14.8284 4.12134 14.8761 4.00632 14.8761 3.88645V2.37218L18.8538 5.44586L14.8762 8.56485Z" fill="#272727" stroke="#272727" stroke-width="0.3"/>
<path d="M3.05551 4.67639H8.14045V3.77246H3.05551C2.51599 3.77246 1.99867 3.98666 1.61727 4.36824C1.23566 4.74966 1.02148 5.26697 1.02148 5.80649V13.9653C1.02148 14.5048 1.23568 15.0221 1.61727 15.4035C1.99868 15.785 2.51599 15.9993 3.05551 15.9993H14.4462C14.9838 15.9934 15.4978 15.7773 15.8781 15.397C16.2582 15.0169 16.4744 14.503 16.4804 13.9653V10.3942H15.5764L15.5763 13.9653C15.5705 14.2632 15.4495 14.5473 15.2388 14.7579C15.0282 14.9686 14.7441 15.0894 14.4462 15.0952H3.05555C2.75579 15.0952 2.46831 14.9762 2.25656 14.7643C2.0446 14.5523 1.92548 14.2649 1.92548 13.9653V5.80648C1.92548 5.50671 2.0446 5.21943 2.25656 5.00749C2.46833 4.79553 2.7558 4.67641 3.05555 4.67641L3.05551 4.67639Z" fill="#272727" stroke="#272727" stroke-width="0.3"/>
</svg>
